<svg xmlns="http://www.w3.org/2000/svg" xmlns:xlink="http://www.w3.org/1999/xlink"><polygon points="0,200 0,100 1,101 2,102 3,103 4,104 5,103 6,102 7,101 8,100 9,99 10,98 11,97 12,98 13,97 14,96 15,95 16,94 17,93 18,92 19,91 20,92 21,91 22,90 23,89 24,90 25,91 26,90 27,91 28,90 29,89 30,88 31,89 32,90 33,91 34,92 35,91 36,90 37,89 38,88 39,89 40,88 41,87 42,86 43,85 44,86 45,87 46,88 47,89 48,88 49,87 50,88 51,89 52,90 53,91 54,90 55,91 56,90 57,91 58,90 59,91 60,90 61,89 62,88 63,89 64,88 65,89 66,88 67,87 68,88 69,89 70,90 71,89 72,90 73,89 74,88 75,87 76,86 77,87 78,86 79,87 80,86 81,85 82,84 83,85 84,86 85,87 86,88 87,87 88,88 89,89 90,90 91,91 92,92 93,91 94,90 95,91 96,92 97,93 98,94 99,95 100,94 101,95 102,94 103,95 104,94 105,95 106,96 107,95 108,96 109,97 110,98 111,99 112,98 113,97 114,98 115,97 116,98 117,99 118,100 119,101 120,102 121,101 122,102 123,103 124,104 125,103 126,104 127,105 128,104 129,103 130,104 131,105 132,104 133,105 134,106 135,105 136,104 137,105 138,104 139,103 140,102 141,103 142,104 143,105 144,104 145,105 146,106 147,105 148,104 149,105 150,104 151,103 152,104 153,105 154,106 155,105 156,104 157,103 158,102 159,103 160,102 161,103 162,102 163,101 164,100 165,99 166,100 167,101 168,100 169,99 170,100 171,99 172,100 173,101 174,102 175,101 176,102 177,101 178,102 179,103 180,104 181,103 182,102 183,101 184,102 185,101 186,102 187,101 188,100 189,101 190,102 191,101 192,100 193,99 194,98 195,97 196,96 197,95 198,94 199,95 200,96 201,97 202,96 203,97 204,98 205,97 206,98 207,99 208,98 209,99 210,100 211,101 212,100 213,101 214,102 215,101 216,100 217,101 218,100 219,101 220,102 221,103 222,102 223,103 224,102 225,103 226,104 227,103 228,102 229,103 230,102 231,103 232,104 233,105 234,104 235,103 236,104 237,105 238,104 239,103 240,104 241,105 242,106 243,107 244,106 245,105 246,104 247,103 248,104 249,103 250,104 251,103 252,102 253,101 254,100 255,99 256,98 257,99 258,100 259,99 260,100 261,99 262,98 263,99 264,100 265,99 266,98 267,99 268,100 269,99 270,98 271,99 272,100 273,99 274,100 275,99 276,98 277,99 278,100 279,99 280,98 281,97 282,96 283,95 284,94 285,93 286,92 287,93 288,94 289,93 290,92 291,91 292,90 293,91 294,92 295,91 296,92 297,91 298,90 299,91 300,90 301,91 302,92 303,93 304,92 305,91 306,90 307,89 308,88 309,87 310,88 311,89 312,90 313,89 314,90 315,91 316,92 317,93 318,92 319,93 320,92 321,91 322,90 323,91 324,92 325,93 326,94 327,95 328,96 329,95 330,96 331,97 332,96 333,97 334,98 335,97 336,96 337,97 338,98 339,99 340,98 341,97 342,96 343,95 344,96 345,95 346,96 347,97 348,98 349,99 350,98 351,99 352,100 353,101 354,100 355,99 356,98 357,99 358,98 359,97 360,96 361,97 362,98 363,99 364,100 365,101 366,100 367,101 368,102 369,103 370,102 371,101 372,100 373,99 374,98 375,99 376,98 377,99 378,98 379,99 380,100 381,101 382,102 383,103 384,102 385,103 386,104 387,105 388,104 389,105 390,106 391,107 392,108 393,109 394,108 395,109 396,108 397,109 398,108 399,109 400,200 " style="fill:rgb(195,161,8);stroke:rgb(95,61,0)"></polygon><polygon points="0,200 0,100 1,99 2,98 3,97 4,98 5,97 6,98 7,99 8,100 9,99 10,98 11,97 12,98 13,99 14,98 15,99 16,100 17,99 18,98 19,97 20,98 21,97 22,96 23,95 24,94 25,95 26,94 27,95 28,94 29,95 30,94 31,95 32,96 33,95 34,96 35,97 36,98 37,97 38,96 39,95 40,94 41,93 42,92 43,93 44,92 45,91 46,90 47,89 48,88 49,87 50,88 51,89 52,90 53,89 54,90 55,89 56,88 57,87 58,88 59,87 60,86 61,87 62,88 63,89 64,88 65,87 66,88 67,87 68,88 69,89 70,90 71,91 72,90 73,91 74,90 75,91 76,92 77,91 78,90 79,91 80,90 81,89 82,90 83,91 84,90 85,91 86,92 87,93 88,92 89,93 90,92 91,93 92,92 93,93 94,94 95,93 96,94 97,93 98,92 99,93 100,92 101,91 102,90 103,89 104,90 105,89 106,88 107,87 108,88 109,89 110,90 111,89 112,88 113,87 114,88 115,87 116,86 117,87 118,86 119,85 120,86 121,87 122,86 123,87 124,86 125,87 126,88 127,87 128,86 129,85 130,86 131,87 132,88 133,87 134,88 135,89 136,90 137,89 138,90 139,89 140,88 141,89 142,88 143,89 144,90 145,91 146,92 147,91 148,92 149,91 150,90 151,89 152,88 153,87 154,88 155,89 156,90 157,89 158,90 159,91 160,90 161,91 162,90 163,91 164,92 165,93 166,94 167,93 168,94 169,95 170,96 171,95 172,94 173,93 174,94 175,95 176,96 177,95 178,96 179,95 180,96 181,95 182,96 183,97 184,98 185,97 186,98 187,99 188,98 189,99 190,100 191,101 192,100 193,99 194,98 195,99 196,98 197,99 198,98 199,97 200,96 201,97 202,98 203,97 204,96 205,97 206,96 207,97 208,96 209,97 210,96 211,97 212,96 213,95 214,94 215,95 216,96 217,95 218,96 219,95 220,96 221,95 222,96 223,97 224,96 225,97 226,96 227,95 228,94 229,93 230,92 231,91 232,90 233,89 234,88 235,89 236,90 237,89 238,88 239,89 240,90 241,89 242,90 243,91 244,92 245,91 246,92 247,93 248,92 249,91 250,90 251,89 252,90 253,91 254,90 255,91 256,90 257,89 258,88 259,89 260,88 261,87 262,88 263,89 264,90 265,89 266,90 267,89 268,90 269,91 270,90 271,91 272,92 273,93 274,92 275,91 276,90 277,91 278,90 279,89 280,88 281,89 282,90 283,91 284,90 285,91 286,92 287,93 288,92 289,91 290,90 291,89 292,88 293,89 294,90 295,91 296,90 297,91 298,92 299,93 300,92 301,93 302,92 303,91 304,90 305,91 306,90 307,91 308,92 309,93 310,92 311,93 312,92 313,91 314,90 315,89 316,88 317,89 318,88 319,87 320,88 321,87 322,88 323,89 324,90 325,91 326,90 327,89 328,90 329,89 330,90 331,89 332,90 333,91 334,90 335,91 336,90 337,91 338,92 339,93 340,94 341,95 342,94 343,95 344,96 345,97 346,98 347,97 348,98 349,99 350,98 351,99 352,98 353,97 354,98 355,99 356,98 357,99 358,100 359,101 360,102 361,103 362,102 363,101 364,102 365,103 366,104 367,103 368,104 369,105 370,106 371,105 372,106 373,105 374,104 375,105 376,104 377,103 378,102 379,101 380,102 381,103 382,102 383,101 384,102 385,101 386,100 387,99 388,100 389,99 390,100 391,99 392,100 393,99 394,98 395,97 396,96 397,95 398,94 399,95 400,200 " style="fill:rgb(237,74,83);stroke:rgb(137,0,0)"></polygon><polygon points="0,200 0,100 1,101 2,100 3,101 4,100 5,99 6,98 7,97 8,96 9,95 10,94 11,95 12,96 13,95 14,94 15,93 16,92 17,91 18,90 19,91 20,90 21,91 22,90 23,89 24,90 25,91 26,92 27,91 28,92 29,91 30,90 31,91 32,92 33,93 34,92 35,91 36,92 37,91 38,90 39,91 40,90 41,89 42,88 43,89 44,90 45,91 46,92 47,93 48,92 49,91 50,90 51,91 52,90 53,89 54,88 55,87 56,88 57,87 58,88 59,87 60,86 61,85 62,86 63,85 64,86 65,85 66,84 67,85 68,86 69,85 70,84 71,83 72,82 73,81 74,80 75,81 76,82 77,83 78,84 79,85 80,84 81,83 82,82 83,81 84,80 85,79 86,78 87,79 88,80 89,79 90,80 91,79 92,80 93,81 94,82 95,83 96,84 97,85 98,84 99,85 100,84 101,85 102,86 103,85 104,86 105,87 106,86 107,87 108,86 109,87 110,86 111,87 112,86 113,85 114,84 115,85 116,84 117,85 118,86 119,87 120,86 121,85 122,86 123,87 124,86 125,85 126,84 127,83 128,82 129,83 130,82 131,83 132,82 133,83 134,82 135,83 136,82 137,81 138,80 139,79 140,78 141,79 142,80 143,79 144,80 145,81 146,80 147,79 148,80 149,81 150,80 151,79 152,78 153,77 154,76 155,77 156,76 157,75 158,76 159,75 160,76 161,75 162,76 163,77 164,78 165,77 166,78 167,79 168,78 169,79 170,80 171,79 172,80 173,79 174,78 175,77 176,76 177,75 178,76 179,77 180,76 181,77 182,76 183,77 184,76 185,75 186,74 187,73 188,72 189,73 190,74 191,75 192,74 193,73 194,72 195,71 196,70 197,69 198,68 199,67 200,66 201,67 202,66 203,67 204,66 205,67 206,66 207,67 208,68 209,69 210,68 211,69 212,70 213,69 214,70 215,69 216,68 217,69 218,68 219,69 220,68 221,69 222,68 223,69 224,70 225,71 226,72 227,71 228,72 229,73 230,72 231,71 232,72 233,73 234,74 235,75 236,74 237,73 238,74 239,73 240,72 241,71 242,70 243,69 244,70 245,69 246,70 247,69 248,68 249,67 250,68 251,69 252,70 253,71 254,70 255,71 256,72 257,73 258,72 259,73 260,74 261,75 262,74 263,75 264,76 265,77 266,78 267,77 268,78 269,79 270,80 271,81 272,80 273,79 274,80 275,81 276,80 277,81 278,82 279,81 280,82 281,83 282,84 283,83 284,84 285,83 286,82 287,81 288,80 289,79 290,78 291,77 292,78 293,79 294,78 295,77 296,76 297,77 298,76 299,75 300,76 301,75 302,74 303,75 304,74 305,75 306,76 307,77 308,76 309,75 310,76 311,75 312,74 313,73 314,72 315,73 316,72 317,73 318,74 319,73 320,72 321,73 322,72 323,71 324,72 325,73 326,74 327,75 328,76 329,77 330,76 331,75 332,76 333,75 334,74 335,75 336,74 337,73 338,74 339,75 340,74 341,75 342,74 343,73 344,74 345,73 346,74 347,73 348,72 349,73 350,74 351,75 352,76 353,75 354,74 355,73 356,74 357,75 358,76 359,75 360,76 361,75 362,76 363,75 364,74 365,73 366,74 367,75 368,74 369,73 370,74 371,73 372,74 373,75 374,76 375,77 376,78 377,77 378,78 379,79 380,80 381,81 382,80 383,81 384,82 385,83 386,82 387,81 388,80 389,79 390,78 391,77 392,76 393,77 394,78 395,79 396,78 397,79 398,78 399,79 400,200 " style="fill:rgb(230,159,88);stroke:rgb(130,59,0)"></polygon><polygon points="0,200 0,100 1,99 2,98 3,99 4,98 5,99 6,100 7,101 8,100 9,101 10,100 11,99 12,100 13,101 14,100 15,101 16,102 17,101 18,100 19,99 20,98 21,97 22,98 23,99 24,100 25,101 26,100 27,99 28,100 29,101 30,102 31,103 32,104 33,105 34,106 35,107 36,106 37,105 38,106 39,107 40,106 41,107 42,106 43,107 44,108 45,107 46,106 47,105 48,104 49,105 50,104 51,103 52,102 53,103 54,102 55,101 56,100 57,101 58,100 59,101 60,100 61,99 62,98 63,97 64,98 65,99 66,98 67,99 68,100 69,101 70,102 71,103 72,102 73,103 74,102 75,101 76,102 77,103 78,104 79,105 80,104 81,105 82,106 83,105 84,104 85,103 86,102 87,101 88,102 89,101 90,102 91,101 92,100 93,101 94,100 95,101 96,100 97,101 98,100 99,101 100,100 101,101 102,102 103,101 104,100 105,99 106,98 107,97 108,96 109,97 110,96 111,95 112,94 113,95 114,94 115,95 116,94 117,93 118,94 119,95 120,94 121,93 122,94 123,93 124,94 125,93 126,92 127,93 128,94 129,95 130,94 131,93 132,94 133,93 134,92 135,91 136,90 137,91 138,90 139,91 140,90 141,89 142,90 143,89 144,90 145,91 146,92 147,91 148,90 149,91 150,92 151,93 152,92 153,93 154,92 155,91 156,92 157,91 158,92 159,93 160,92 161,93 162,92 163,93 164,92 165,91 166,92 167,93 168,94 169,95 170,96 171,95 172,96 173,95 174,96 175,95 176,94 177,95 178,94 179,95 180,94 181,95 182,96 183,95 184,96 185,97 186,96 187,95 188,96 189,95 190,96 191,97 192,98 193,97 194,96 195,95 196,94 197,93 198,92 199,93 200,92 201,91 202,90 203,89 204,88 205,87 206,86 207,87 208,86 209,85 210,86 211,85 212,86 213,87 214,88 215,87 216,86 217,85 218,84 219,85 220,86 221,87 222,86 223,87 224,88 225,87 226,88 227,87 228,86 229,87 230,88 231,87 232,88 233,87 234,88 235,87 236,86 237,87 238,86 239,87 240,88 241,89 242,90 243,89 244,88 245,87 246,86 247,87 248,86 249,87 250,86 251,87 252,86 253,87 254,88 255,87 256,88 257,89 258,88 259,89 260,88 261,89 262,90 263,89 264,88 265,87 266,86 267,87 268,86 269,87 270,86 271,85 272,84 273,83 274,84 275,83 276,84 277,85 278,86 279,87 280,86 281,85 282,86 283,85 284,86 285,85 286,84 287,85 288,86 289,87 290,88 291,89 292,88 293,87 294,88 295,87 296,86 297,87 298,86 299,85 300,86 301,85 302,86 303,87 304,88 305,87 306,88 307,87 308,88 309,87 310,86 311,87 312,88 313,87 314,86 315,87 316,86 317,87 318,86 319,85 320,86 321,85 322,84 323,85 324,86 325,87 326,88 327,87 328,86 329,87 330,86 331,87 332,86 333,85 334,84 335,83 336,84 337,85 338,84 339,83 340,84 341,85 342,86 343,85 344,84 345,85 346,86 347,87 348,88 349,87 350,86 351,85 352,84 353,83 354,82 355,81 356,80 357,81 358,82 359,83 360,82 361,81 362,80 363,81 364,80 365,81 366,80 367,79 368,78 369,79 370,80 371,81 372,82 373,81 374,80 375,79 376,80 377,81 378,80 379,79 380,80 381,79 382,78 383,79 384,78 385,77 386,76 387,77 388,78 389,77 390,76 391,77 392,76 393,77 394,78 395,79 396,80 397,81 398,80 399,79 400,200 " style="fill:rgb(80,114,37);stroke:rgb(0,14,0)"></polygon><polygon points="0,200 0,100 1,99 2,100 3,101 4,100 5,99 6,98 7,97 8,96 9,95 10,96 11,95 12,96 13,95 14,94 15,93 16,92 17,93 18,92 19,93 20,94 21,95 22,96 23,95 24,96 25,97 26,96 27,95 28,94 29,95 30,96 31,97 32,96 33,95 34,94 35,95 36,94 37,95 38,94 39,95 40,94 41,95 42,96 43,97 44,98 45,97 46,98 47,97 48,96 49,95 50,94 51,93 52,92 53,91 54,92 55,93 56,94 57,95 58,94 59,95 60,96 61,95 62,94 63,93 64,92 65,91 66,90 67,91 68,92 69,93 70,94 71,95 72,94 73,93 74,92 75,91 76,90 77,91 78,90 79,89 80,88 81,89 82,90 83,91 84,90 85,91 86,90 87,89 88,90 89,91 90,92 91,91 92,90 93,89 94,88 95,89 96,90 97,91 98,92 99,93 100,92 101,91 102,92 103,93 104,92 105,93 106,92 107,91 108,92 109,91 110,90 111,89 112,90 113,91 114,92 115,93 116,92 117,93 118,92 119,91 120,90 121,91 122,92 123,93 124,94 125,93 126,94 127,93 128,94 129,93 130,94 131,93 132,94 133,93 134,92 135,91 136,92 137,91 138,92 139,91 140,90 141,91 142,90 143,89 144,88 145,89 146,90 147,89 148,90 149,89 150,90 151,89 152,90 153,91 154,90 155,89 156,88 157,87 158,88 159,87 160,86 161,87 162,88 163,87 164,88 165,89 166,90 167,91 168,90 169,89 170,90 171,91 172,90 173,89 174,88 175,89 176,90 177,91 178,92 179,91 180,92 181,91 182,92 183,91 184,90 185,89 186,88 187,89 188,88 189,89 190,88 191,87 192,86 193,85 194,84 195,85 196,86 197,85 198,86 199,87 200,86 201,87 202,86 203,87 204,86 205,85 206,86 207,85 208,84 209,85 210,84 211,83 212,84 213,85 214,84 215,85 216,86 217,87 218,88 219,89 220,88 221,89 222,88 223,87 224,88 225,89 226,88 227,89 228,90 229,91 230,90 231,89 232,90 233,91 234,90 235,89 236,88 237,87 238,88 239,89 240,88 241,87 242,86 243,87 244,88 245,89 246,88 247,89 248,90 249,89 250,90 251,91 252,90 253,89 254,90 255,89 256,90 257,91 258,92 259,91 260,92 261,93 262,92 263,91 264,92 265,91 266,90 267,91 268,90 269,89 270,88 271,87 272,86 273,87 274,88 275,89 276,90 277,89 278,88 279,87 280,88 281,87 282,88 283,89 284,88 285,87 286,86 287,85 288,86 289,87 290,86 291,85 292,86 293,87 294,88 295,87 296,88 297,87 298,86 299,87 300,88 301,87 302,88 303,87 304,86 305,85 306,86 307,85 308,84 309,85 310,84 311,85 312,86 313,87 314,86 315,85 316,86 317,87 318,86 319,87 320,88 321,87 322,86 323,85 324,84 325,85 326,86 327,85 328,86 329,87 330,86 331,85 332,84 333,85 334,86 335,85 336,84 337,85 338,84 339,85 340,86 341,85 342,86 343,87 344,88 345,89 346,88 347,87 348,86 349,87 350,88 351,87 352,86 353,85 354,86 355,85 356,86 357,87 358,86 359,87 360,86 361,85 362,86 363,85 364,86 365,85 366,86 367,85 368,86 369,87 370,86 371,87 372,86 373,87 374,88 375,89 376,88 377,87 378,88 379,89 380,90 381,91 382,92 383,93 384,92 385,93 386,94 387,95 388,94 389,93 390,92 391,91 392,92 393,91 394,90 395,89 396,88 397,89 398,90 399,89 400,200 " style="fill:rgb(216,228,137);stroke:rgb(116,128,37)"></polygon><polygon points="0,200 0,100 1,99 2,98 3,99 4,98 5,97 6,98 7,99 8,100 9,101 10,102 11,103 12,102 13,103 14,102 15,101 16,100 17,99 18,100 19,99 20,100 21,101 22,102 23,101 24,100 25,101 26,102 27,103 28,104 29,103 30,102 31,103 32,104 33,103 34,104 35,103 36,104 37,105 38,104 39,103 40,102 41,101 42,102 43,103 44,104 45,103 46,104 47,103 48,102 49,103 50,102 51,103 52,104 53,103 54,104 55,105 56,104 57,105 58,104 59,103 60,102 61,101 62,102 63,103 64,104 65,105 66,106 67,105 68,104 69,105 70,104 71,103 72,102 73,101 74,102 75,101 76,102 77,101 78,100 79,99 80,100 81,101 82,100 83,99 84,100 85,99 86,98 87,99 88,100 89,99 90,100 91,99 92,98 93,99 94,100 95,101 96,102 97,103 98,102 99,103 100,104 101,105 102,104 103,105 104,106 105,107 106,108 107,107 108,106 109,107 110,108 111,107 112,106 113,107 114,108 115,107 116,108 117,107 118,108 119,107 120,106 121,107 122,106 123,105 124,106 125,105 126,104 127,105 128,104 129,105 130,106 131,107 132,106 133,107 134,106 135,107 136,108 137,107 138,108 139,107 140,106 141,105 142,106 143,105 144,104 145,105 146,104 147,103 148,102 149,101 150,100 151,99 152,98 153,97 154,96 155,95 156,94 157,95 158,94 159,93 160,94 161,95 162,94 163,95 164,94 165,95 166,94 167,93 168,92 169,93 170,92 171,91 172,92 173,91 174,92 175,93 176,92 177,93 178,92 179,93 180,94 181,95 182,94 183,95 184,96 185,95 186,94 187,93 188,92 189,93 190,92 191,93 192,92 193,91 194,92 195,91 196,90 197,89 198,90 199,91 200,90 201,91 202,92 203,91 204,92 205,93 206,92 207,91 208,92 209,91 210,90 211,91 212,90 213,91 214,90 215,89 216,90 217,91 218,90 219,91 220,92 221,93 222,94 223,93 224,92 225,93 226,94 227,93 228,92 229,91 230,90 231,89 232,88 233,89 234,88 235,89 236,88 237,89 238,88 239,89 240,90 241,91 242,92 243,91 244,92 245,91 246,90 247,89 248,90 249,91 250,90 251,89 252,90 253,91 254,92 255,93 256,94 257,93 258,94 259,95 260,96 261,97 262,98 263,99 264,98 265,99 266,98 267,97 268,98 269,99 270,100 271,101 272,100 273,99 274,98 275,99 276,100 277,101 278,100 279,101 280,100 281,101 282,102 283,103 284,104 285,105 286,106 287,107 288,108 289,109 290,110 291,111 292,112 293,113 294,114 295,115 296,114 297,115 298,114 299,115 300,114 301,113 302,112 303,113 304,114 305,115 306,114 307,113 308,114 309,115 310,116 311,117 312,116 313,115 314,114 315,113 316,112 317,113 318,114 319,115 320,116 321,115 322,114 323,113 324,112 325,111 326,112 327,113 328,114 329,113 330,112 331,113 332,112 333,111 334,112 335,113 336,112 337,113 338,114 339,113 340,114 341,115 342,114 343,115 344,116 345,117 346,118 347,117 348,116 349,115 350,116 351,117 352,116 353,115 354,114 355,113 356,112 357,111 358,112 359,113 360,112 361,113 362,112 363,113 364,114 365,115 366,116 367,117 368,116 369,117 370,118 371,117 372,118 373,119 374,120 375,121 376,122 377,121 378,120 379,121 380,122 381,123 382,122 383,123 384,122 385,121 386,122 387,121 388,122 389,121 390,122 391,121 392,122 393,121 394,120 395,121 396,120 397,119 398,120 399,121 400,200 " style="fill:rgb(91,52,218);stroke:rgb(0,0,118)"></polygon><polygon points="0,200 0,100 1,99 2,98 3,97 4,98 5,97 6,96 7,95 8,94 9,95 10,94 11,95 12,96 13,95 14,94 15,95 16,94 17,95 18,94 19,95 20,96 21,97 22,98 23,97 24,96 25,97 26,96 27,95 28,96 29,97 30,96 31,95 32,96 33,95 34,96 35,95 36,94 37,93 38,92 39,91 40,90 41,89 42,90 43,89 44,90 45,89 46,88 47,89 48,90 49,89 50,90 51,91 52,92 53,91 54,92 55,91 56,92 57,93 58,94 59,93 60,92 61,91 62,90 63,89 64,88 65,87 66,86 67,87 68,86 69,85 70,86 71,87 72,86 73,87 74,86 75,85 76,84 77,83 78,84 79,85 80,84 81,85 82,84 83,85 84,84 85,85 86,84 87,85 88,86 89,87 90,86 91,85 92,86 93,87 94,88 95,89 96,90 97,89 98,90 99,89 100,88 101,87 102,88 103,89 104,88 105,89 106,90 107,89 108,90 109,91 110,90 111,91 112,92 113,91 114,90 115,91 116,92 117,93 118,94 119,93 120,94 121,93 122,92 123,93 124,92 125,91 126,90 127,89 128,88 129,87 130,88 131,87 132,86 133,87 134,88 135,89 136,88 137,89 138,90 139,91 140,90 141,89 142,90 143,89 144,88 145,87 146,86 147,87 148,88 149,89 150,88 151,89 152,88 153,89 154,88 155,87 156,88 157,89 158,88 159,87 160,88 161,89 162,88 163,89 164,90 165,89 166,88 167,87 168,86 169,87 170,88 171,87 172,86 173,85 174,84 175,85 176,84 177,85 178,86 179,85 180,86 181,87 182,86 183,87 184,86 185,85 186,84 187,83 188,84 189,85 190,86 191,85 192,86 193,87 194,88 195,89 196,90 197,91 198,92 199,91 200,92 201,93 202,94 203,93 204,94 205,95 206,94 207,93 208,94 209,95 210,94 211,95 212,94 213,95 214,96 215,97 216,98 217,97 218,96 219,97 220,98 221,97 222,98 223,99 224,100 225,101 226,102 227,103 228,102 229,101 230,102 231,103 232,102 233,101 234,102 235,103 236,104 237,103 238,102 239,101 240,100 241,101 242,100 243,99 244,100 245,101 246,102 247,103 248,102 249,101 250,102 251,103 252,104 253,105 254,106 255,107 256,108 257,107 258,108 259,107 260,106 261,105 262,106 263,107 264,108 265,109 266,108 267,107 268,106 269,107 270,106 271,107 272,106 273,105 274,106 275,105 276,106 277,105 278,104 279,105 280,104 281,103 282,104 283,105 284,106 285,107 286,108 287,107 288,106 289,105 290,104 291,103 292,104 293,103 294,102 295,101 296,102 297,101 298,102 299,103 300,102 301,101 302,100 303,101 304,100 305,101 306,100 307,101 308,100 309,101 310,100 311,101 312,102 313,101 314,100 315,101 316,100 317,101 318,100 319,101 320,100 321,101 322,102 323,103 324,104 325,103 326,102 327,101 328,102 329,101 330,100 331,99 332,100 333,99 334,100 335,99 336,100 337,99 338,100 339,101 340,100 341,99 342,100 343,99 344,100 345,101 346,100 347,99 348,100 349,99 350,98 351,97 352,98 353,99 354,100 355,99 356,100 357,99 358,100 359,101 360,102 361,103 362,104 363,103 364,102 365,101 366,100 367,99 368,98 369,99 370,98 371,97 372,96 373,95 374,94 375,95 376,96 377,97 378,98 379,99 380,98 381,99 382,98 383,97 384,96 385,95 386,94 387,93 388,94 389,95 390,94 391,93 392,94 393,95 394,96 395,95 396,96 397,95 398,96 399,97 400,200 " style="fill:rgb(172,92,73);stroke:rgb(72,0,0)"></polygon><polygon points="0,200 0,100 1,101 2,100 3,99 4,98 5,99 6,98 7,97 8,98 9,99 10,98 11,97 12,96 13,95 14,96 15,97 16,96 17,95 18,94 19,95 20,96 21,97 22,96 23,97 24,98 25,99 26,98 27,99 28,98 29,97 30,98 31,99 32,98 33,97 34,96 35,95 36,94 37,95 38,96 39,97 40,96 41,95 42,94 43,95 44,96 45,95 46,96 47,95 48,96 49,97 50,98 51,97 52,96 53,97 54,96 55,97 56,98 57,97 58,98 59,99 60,98 61,97 62,96 63,95 64,94 65,93 66,92 67,93 68,94 69,95 70,96 71,97 72,96 73,95 74,94 75,95 76,94 77,93 78,94 79,95 80,94 81,95 82,96 83,97 84,96 85,97 86,98 87,99 88,98 89,97 90,96 91,97 92,96 93,97 94,98 95,99 96,98 97,97 98,96 99,95 100,96 101,95 102,94 103,95 104,94 105,93 106,94 107,93 108,92 109,93 110,92 111,91 112,90 113,91 114,92 115,91 116,92 117,91 118,90 119,91 120,92 121,91 122,90 123,91 124,92 125,93 126,94 127,93 128,94 129,93 130,92 131,91 132,92 133,91 134,90 135,89 136,88 137,87 138,86 139,85 140,86 141,85 142,84 143,83 144,82 145,81 146,80 147,79 148,78 149,79 150,80 151,81 152,82 153,83 154,82 155,81 156,82 157,81 158,80 159,79 160,78 161,79 162,80 163,81 164,82 165,83 166,84 167,83 168,84 169,85 170,86 171,87 172,88 173,89 174,90 175,91 176,90 177,89 178,88 179,87 180,86 181,85 182,86 183,85 184,86 185,87 186,86 187,87 188,86 189,85 190,84 191,83 192,84 193,83 194,84 195,85 196,84 197,85 198,86 199,87 200,86 201,85 202,84 203,83 204,84 205,83 206,82 207,83 208,82 209,83 210,82 211,81 212,82 213,83 214,82 215,83 216,82 217,81 218,82 219,81 220,80 221,81 222,82 223,81 224,82 225,83 226,82 227,83 228,84 229,83 230,82 231,81 232,82 233,83 234,82 235,83 236,82 237,81 238,80 239,79 240,80 241,79 242,78 243,77 244,78 245,79 246,78 247,79 248,80 249,81 250,82 251,83 252,84 253,85 254,86 255,85 256,86 257,85 258,84 259,83 260,82 261,81 262,82 263,81 264,80 265,79 266,78 267,77 268,76 269,75 270,76 271,75 272,74 273,73 274,72 275,71 276,70 277,71 278,70 279,69 280,70 281,71 282,70 283,71 284,72 285,73 286,72 287,73 288,74 289,75 290,76 291,75 292,76 293,75 294,74 295,75 296,74 297,73 298,72 299,71 300,72 301,71 302,72 303,73 304,74 305,75 306,76 307,77 308,76 309,77 310,78 311,77 312,76 313,77 314,78 315,77 316,78 317,79 318,80 319,79 320,80 321,81 322,82 323,83 324,82 325,81 326,80 327,81 328,80 329,81 330,80 331,79 332,78 333,77 334,78 335,77 336,76 337,77 338,76 339,75 340,76 341,77 342,76 343,75 344,76 345,75 346,76 347,75 348,76 349,77 350,76 351,77 352,78 353,79 354,80 355,79 356,78 357,79 358,78 359,79 360,78 361,77 362,78 363,77 364,78 365,79 366,78 367,79 368,78 369,79 370,80 371,81 372,80 373,79 374,78 375,77 376,76 377,77 378,78 379,79 380,80 381,79 382,78 383,77 384,76 385,77 386,78 387,79 388,78 389,79 390,78 391,77 392,76 393,75 394,76 395,75 396,76 397,77 398,76 399,75 400,200 " style="fill:rgb(112,131,185);stroke:rgb(12,31,85)"></polygon><polygon points="0,200 0,100 1,99 2,100 3,101 4,102 5,103 6,104 7,103 8,104 9,105 10,104 11,105 12,104 13,103 14,104 15,105 16,104 17,103 18,104 19,103 20,102 21,101 22,102 23,103 24,102 25,103 26,102 27,101 28,100 29,99 30,98 31,97 32,96 33,97 34,98 35,99 36,98 37,99 38,98 39,99 40,98 41,99 42,98 43,97 44,96 45,95 46,96 47,97 48,96 49,97 50,98 51,99 52,100 53,99 54,98 55,99 56,98 57,97 58,96 59,95 60,96 61,95 62,94 63,93 64,94 65,95 66,94 67,95 68,96 69,97 70,98 71,97 72,96 73,97 74,96 75,95 76,96 77,97 78,98 79,97 80,98 81,99 82,100 83,99 84,98 85,99 86,100 87,101 88,102 89,103 90,102 91,103 92,102 93,101 94,102 95,101 96,102 97,103 98,102 99,103 100,102 101,101 102,100 103,99 104,100 105,99 106,98 107,97 108,98 109,99 110,100 111,101 112,102 113,101 114,100 115,99 116,100 117,101 118,102 119,101 120,102 121,103 122,104 123,103 124,104 125,103 126,104 127,103 128,104 129,105 130,106 131,105 132,106 133,107 134,106 135,105 136,106 137,107 138,108 139,107 140,106 141,105 142,104 143,103 144,104 145,103 146,102 147,103 148,104 149,105 150,104 151,105 152,106 153,107 154,108 155,109 156,110 157,111 158,110 159,109 160,110 161,111 162,112 163,111 164,112 165,111 166,110 167,109 168,110 169,109 170,110 171,109 172,108 173,107 174,108 175,107 176,108 177,109 178,108 179,109 180,110 181,109 182,108 183,107 184,106 185,107 186,106 187,105 188,106 189,105 190,106 191,107 192,108 193,107 194,108 195,109 196,110 197,109 198,108 199,107 200,106 201,107 202,106 203,105 204,104 205,103 206,102 207,101 208,100 209,101 210,100 211,101 212,102 213,101 214,100 215,101 216,100 217,101 218,100 219,99 220,100 221,101 222,100 223,99 224,98 225,99 226,100 227,99 228,100 229,101 230,100 231,99 232,100 233,99 234,98 235,99 236,98 237,97 238,98 239,97 240,98 241,99 242,98 243,99 244,100 245,101 246,102 247,103 248,104 249,103 250,104 251,103 252,104 253,103 254,102 255,103 256,104 257,103 258,102 259,101 260,102 261,103 262,104 263,105 264,106 265,105 266,106 267,105 268,106 269,107 270,108 271,107 272,106 273,107 274,108 275,107 276,106 277,105 278,104 279,105 280,104 281,105 282,106 283,105 284,104 285,103 286,104 287,103 288,102 289,103 290,104 291,103 292,102 293,103 294,102 295,101 296,102 297,101 298,102 299,103 300,104 301,103 302,104 303,103 304,104 305,103 306,102 307,103 308,102 309,103 310,104 311,105 312,106 313,105 314,106 315,105 316,106 317,105 318,106 319,105 320,104 321,105 322,104 323,103 324,104 325,103 326,104 327,105 328,104 329,103 330,104 331,105 332,104 333,105 334,106 335,107 336,106 337,107 338,108 339,107 340,108 341,109 342,108 343,109 344,110 345,111 346,112 347,113 348,112 349,111 350,110 351,109 352,110 353,111 354,112 355,111 356,110 357,111 358,110 359,111 360,110 361,111 362,110 363,111 364,112 365,111 366,112 367,111 368,110 369,109 370,108 371,109 372,110 373,111 374,112 375,111 376,112 377,113 378,114 379,113 380,114 381,113 382,112 383,111 384,112 385,113 386,112 387,111 388,110 389,109 390,110 391,109 392,108 393,107 394,106 395,107 396,108 397,109 398,108 399,109 400,200 " style="fill:rgb(72,109,218);stroke:rgb(0,9,118)"></polygon><polygon points="0,200 0,100 1,101 2,102 3,103 4,104 5,103 6,104 7,105 8,106 9,107 10,106 11,107 12,106 13,105 14,106 15,107 16,108 17,109 18,108 19,107 20,108 21,109 22,110 23,111 24,112 25,113 26,114 27,113 28,114 29,113 30,114 31,113 32,114 33,115 34,114 35,115 36,116 37,117 38,116 39,117 40,116 41,115 42,116 43,115 44,114 45,113 46,112 47,113 48,112 49,113 50,114 51,113 52,112 53,111 54,112 55,113 56,114 57,113 58,114 59,115 60,114 61,113 62,114 63,113 64,112 65,113 66,114 67,113 68,114 69,113 70,112 71,113 72,114 73,115 74,114 75,113 76,114 77,115 78,116 79,117 80,116 81,115 82,116 83,117 84,118 85,117 86,116 87,117 88,118 89,119 90,120 91,119 92,120 93,119 94,120 95,119 96,120 97,121 98,122 99,123 100,122 101,121 102,120 103,121 104,120 105,121 106,122 107,123 108,122 109,123 110,122 111,121 112,120 113,119 114,118 115,117 116,118 117,119 118,120 119,121 120,120 121,121 122,122 123,123 124,124 125,125 126,126 127,127 128,126 129,125 130,124 131,123 132,124 133,125 134,124 135,123 136,122 137,121 138,122 139,121 140,120 141,119 142,118 143,117 144,116 145,117 146,118 147,119 148,120 149,121 150,120 151,119 152,120 153,121 154,120 155,119 156,120 157,119 158,118 159,117 160,118 161,119 162,120 163,121 164,120 165,121 166,120 167,121 168,120 169,119 170,118 171,117 172,118 173,119 174,118 175,119 176,120 177,119 178,118 179,119 180,120 181,121 182,120 183,121 184,120 185,121 186,120 187,121 188,120 189,121 190,122 191,123 192,124 193,123 194,124 195,125 196,126 197,125 198,126 199,125 200,124 201,125 202,124 203,125 204,126 205,125 206,124 207,123 208,124 209,125 210,126 211,125 212,124 213,125 214,124 215,123 216,124 217,125 218,126 219,127 220,128 221,127 222,128 223,127 224,126 225,125 226,126 227,125 228,126 229,125 230,124 231,125 232,124 233,125 234,124 235,125 236,124 237,123 238,124 239,123 240,122 241,123 242,124 243,123 244,122 245,121 246,120 247,119 248,120 249,119 250,120 251,121 252,122 253,121 254,120 255,119 256,120 257,121 258,120 259,119 260,120 261,121 262,122 263,123 264,124 265,123 266,124 267,125 268,124 269,125 270,126 271,125 272,126 273,127 274,128 275,129 276,130 277,131 278,130 279,131 280,130 281,131 282,130 283,131 284,130 285,129 286,128 287,129 288,130 289,131 290,132 291,133 292,134 293,133 294,132 295,131 296,130 297,131 298,132 299,131 300,132 301,133 302,132 303,133 304,134 305,135 306,136 307,137 308,138 309,137 310,136 311,137 312,136 313,135 314,134 315,133 316,132 317,131 318,130 319,131 320,132 321,133 322,134 323,135 324,136 325,137 326,136 327,137 328,138 329,137 330,136 331,135 332,134 333,133 334,134 335,133 336,134 337,135 338,134 339,133 340,132 341,133 342,134 343,133 344,134 345,135 346,134 347,135 348,134 349,133 350,132 351,131 352,130 353,129 354,128 355,127 356,126 357,125 358,124 359,125 360,126 361,125 362,126 363,127 364,128 365,127 366,128 367,127 368,128 369,127 370,126 371,127 372,126 373,127 374,126 375,125 376,126 377,127 378,126 379,125 380,124 381,125 382,126 383,125 384,126 385,125 386,124 387,125 388,126 389,125 390,124 391,125 392,124 393,125 394,126 395,125 396,124 397,125 398,126 399,127 400,200 " style="fill:rgb(69,122,246);stroke:rgb(0,22,146)"></polygon></svg>